REM DIRINDEX 1\2,1\3,1\4,1\5\6,1\5\7,1\8
REM DIRNAME cjc115,folder01,folder02,folder03,folder04,folder05,folder06,folder07
TITLE ""
FILE "054 Åy054ÅzUnit3 (0613 degrade_0624 reap).mp3" MP3
  TRACK 01 AUDIO
    TITLE "0:"
    INDEX 01 00:00:00
  TRACK 02 AUDIO
    TITLE "2:cjc115_2068"
    INDEX 01 00:00:07
  TRACK 03 AUDIO
    TITLE "0:"
    INDEX 01 00:01:28
  TRACK 04 AUDIO
    TITLE "3:cjc115_2069"
    INDEX 01 00:01:34
  TRACK 05 AUDIO
    TITLE "0:"
    INDEX 01 00:04:07
  TRACK 06 AUDIO
    TITLE "4:cjc115_2070"
    INDEX 01 00:04:15
  TRACK 07 AUDIO
    TITLE "0:"
    INDEX 01 00:07:47
  TRACK 08 AUDIO
    TITLE "2:cjc115_2071"
    INDEX 01 00:08:56
  TRACK 09 AUDIO
    TITLE "0:"
    INDEX 01 00:09:65
  TRACK 10 AUDIO
    TITLE "3:cjc115_2072"
    INDEX 01 00:10:00
  TRACK 11 AUDIO
    TITLE "0:"
    INDEX 01 00:11:52
  TRACK 12 AUDIO
    TITLE "4:cjc115_2073"
    INDEX 01 00:11:64
  TRACK 13 AUDIO
    TITLE "0:"
    INDEX 01 00:16:32
  TRACK 14 AUDIO
    TITLE "2:cjc115_2074"
    INDEX 01 00:17:41
  TRACK 15 AUDIO
    TITLE "0:"
    INDEX 01 00:18:60
  TRACK 16 AUDIO
    TITLE "3:cjc115_2075"
    INDEX 01 00:18:66
  TRACK 17 AUDIO
    TITLE "0:"
    INDEX 01 00:21:11
  TRACK 18 AUDIO
    TITLE "4:cjc115_2076"
    INDEX 01 00:21:17
  TRACK 19 AUDIO
    TITLE "0:"
    INDEX 01 00:25:58
  TRACK 20 AUDIO
    TITLE "2:cjc115_2077"
    INDEX 01 00:26:66
  TRACK 21 AUDIO
    TITLE "0:"
    INDEX 01 00:28:12
  TRACK 22 AUDIO
    TITLE "3:cjc115_2078"
    INDEX 01 00:28:21
  TRACK 23 AUDIO
    TITLE "0:"
    INDEX 01 00:30:59
  TRACK 24 AUDIO
    TITLE "4:cjc115_2079"
    INDEX 01 00:30:67
  TRACK 25 AUDIO
    TITLE "0:"
    INDEX 01 00:34:10
  TRACK 26 AUDIO
    TITLE "2:cjc115_2080"
    INDEX 01 00:35:19
  TRACK 27 AUDIO
    TITLE "0:"
    INDEX 01 00:36:42
  TRACK 28 AUDIO
    TITLE "3:cjc115_2081"
    INDEX 01 00:36:50
  TRACK 29 AUDIO
    TITLE "0:"
    INDEX 01 00:38:37
  TRACK 30 AUDIO
    TITLE "4:cjc115_2082"
    INDEX 01 00:38:47
  TRACK 31 AUDIO
    TITLE "0:"
    INDEX 01 00:42:45
  TRACK 32 AUDIO
    TITLE "2:cjc115_2083"
    INDEX 01 00:43:54
  TRACK 33 AUDIO
    TITLE "0:"
    INDEX 01 00:44:71
  TRACK 34 AUDIO
    TITLE "3:cjc115_2084"
    INDEX 01 00:45:04
  TRACK 35 AUDIO
    TITLE "0:"
    INDEX 01 00:46:43
  TRACK 36 AUDIO
    TITLE "4:cjc115_2085"
    INDEX 01 00:46:49
  TRACK 37 AUDIO
    TITLE "0:"
    INDEX 01 00:51:42
  TRACK 38 AUDIO
    TITLE "2:cjc115_2086"
    INDEX 01 00:52:51
  TRACK 39 AUDIO
    TITLE "0:"
    INDEX 01 00:54:21
  TRACK 40 AUDIO
    TITLE "3:cjc115_2087"
    INDEX 01 00:54:32
  TRACK 41 AUDIO
    TITLE "0:"
    INDEX 01 00:55:26
  TRACK 42 AUDIO
    TITLE "4:cjc115_2088"
    INDEX 01 00:55:36
  TRACK 43 AUDIO
    TITLE "0:"
    INDEX 01 01:00:19
  TRACK 44 AUDIO
    TITLE "2:cjc115_2089"
    INDEX 01 01:01:29
  TRACK 45 AUDIO
    TITLE "0:"
    INDEX 01 01:02:30
  TRACK 46 AUDIO
    TITLE "3:cjc115_2090"
    INDEX 01 01:02:40
  TRACK 47 AUDIO
    TITLE "0:"
    INDEX 01 01:04:25
  TRACK 48 AUDIO
    TITLE "4:cjc115_2091"
    INDEX 01 01:04:31
  TRACK 49 AUDIO
    TITLE "0:"
    INDEX 01 01:07:31
  TRACK 50 AUDIO
    TITLE "2:cjc115_2092"
    INDEX 01 01:08:38
  TRACK 51 AUDIO
    TITLE "0:"
    INDEX 01 01:09:57
  TRACK 52 AUDIO
    TITLE "3:cjc115_2093"
    INDEX 01 01:09:65
  TRACK 53 AUDIO
    TITLE "0:"
    INDEX 01 01:11:72
  TRACK 54 AUDIO
    TITLE "4:cjc115_2094"
    INDEX 01 01:12:07
  TRACK 55 AUDIO
    TITLE "0:"
    INDEX 01 01:16:65
  TRACK 56 AUDIO
    TITLE "2:cjc115_2095"
    INDEX 01 01:18:00
  TRACK 57 AUDIO
    TITLE "0:"
    INDEX 01 01:18:74
  TRACK 58 AUDIO
    TITLE "3:cjc115_2096"
    INDEX 01 01:19:09
  TRACK 59 AUDIO
    TITLE "0:"
    INDEX 01 01:20:30
  TRACK 60 AUDIO
    TITLE "4:cjc115_2097"
    INDEX 01 01:20:36
  TRACK 61 AUDIO
    TITLE "0:"
    INDEX 01 01:24:20
  TRACK 62 AUDIO
    TITLE "2:cjc115_2098"
    INDEX 01 01:25:29
  TRACK 63 AUDIO
    TITLE "0:"
    INDEX 01 01:27:04
  TRACK 64 AUDIO
    TITLE "3:cjc115_2099"
    INDEX 01 01:27:12
  TRACK 65 AUDIO
    TITLE "0:"
    INDEX 01 01:29:64
  TRACK 66 AUDIO
    TITLE "4:cjc115_2100"
    INDEX 01 01:29:74
  TRACK 67 AUDIO
    TITLE "0:"
    INDEX 01 01:34:54
  TRACK 68 AUDIO
    TITLE "2:cjc115_2101"
    INDEX 01 01:35:57
  TRACK 69 AUDIO
    TITLE "0:"
    INDEX 01 01:36:56
  TRACK 70 AUDIO
    TITLE "3:cjc115_2102"
    INDEX 01 01:36:64
  TRACK 71 AUDIO
    TITLE "0:"
    INDEX 01 01:38:28
  TRACK 72 AUDIO
    TITLE "4:cjc115_2103"
    INDEX 01 01:38:36
  TRACK 73 AUDIO
    TITLE "0:"
    INDEX 01 01:42:67
